<svg width="1080" height="1080" viewBox="0 0 1080 1080" fill="none" xmlns="http://www.w3.org/2000/svg">
<path d="M385.446 250.109C397.493 250.109 409.422 252.481 420.552 257.092C431.682 261.702 441.795 268.459 450.314 276.978C458.832 285.496 465.59 295.609 470.2 306.739C474.81 317.869 477.183 329.798 477.183 341.845V738.176C477.177 762.502 467.51 785.831 450.306 803.03C433.103 820.229 409.773 829.891 385.446 829.891C361.123 829.886 337.798 820.221 320.6 803.022C303.401 785.824 293.736 762.499 293.73 738.176V341.845C293.73 317.519 303.393 294.189 320.592 276.985C337.791 259.782 361.12 250.114 385.446 250.109Z" fill="url(#paint0_linear_6_200)"/>
<path d="M385.446 254.327C396.939 254.327 408.32 256.591 418.938 260.989C429.556 265.387 439.204 271.834 447.331 279.961C455.457 288.087 461.904 297.735 466.302 308.354C470.7 318.972 472.964 330.352 472.964 341.845V738.176C472.958 761.383 463.735 783.638 447.323 800.047C430.911 816.455 408.654 825.673 385.446 825.673C362.242 825.667 339.99 816.447 323.583 800.039C307.175 783.632 297.955 761.38 297.949 738.176V341.845C297.949 318.638 307.167 296.38 323.575 279.968C339.983 263.556 362.239 254.333 385.446 254.327Z" stroke="white" stroke-opacity="0.101961" style="stroke:white;stroke-opacity:0.101961;" stroke-width="0.633685" stroke-linecap="round" stroke-linejoin="round"/>
<path d="M694.449 829.891C670.122 829.891 646.792 820.229 629.588 803.03C612.385 785.831 602.717 762.502 602.712 738.176V341.845C602.712 317.515 612.377 294.182 629.581 276.978C646.785 259.774 670.118 250.109 694.449 250.109C718.775 250.114 742.103 259.782 759.303 276.985C776.502 294.189 786.164 317.519 786.164 341.845V738.176C786.159 762.499 776.494 785.824 759.295 803.022C742.096 820.221 718.771 829.886 694.449 829.891Z" fill="url(#paint1_linear_6_200)"/>
<path d="M694.449 825.673C671.241 825.673 648.984 816.455 632.572 800.047C616.159 783.638 606.936 761.383 606.931 738.176V341.845C606.931 318.634 616.151 296.373 632.564 279.961C648.977 263.548 671.237 254.327 694.449 254.327C717.656 254.333 739.911 263.556 756.32 279.968C772.728 296.38 781.946 318.638 781.946 341.845V738.176C781.94 761.38 772.72 783.632 756.312 800.039C739.904 816.447 717.653 825.667 694.449 825.673Z" stroke="white" stroke-opacity="0.101961" style="stroke:white;stroke-opacity:0.101961;" stroke-width="0.633685" stroke-linecap="round" stroke-linejoin="round"/>
<path d="M330.455 268.144C349.702 253.274 374.066 246.657 398.191 249.746C422.316 252.836 444.226 265.379 459.105 284.618L767.095 683.1C781.969 702.351 788.587 726.722 785.493 750.852C782.4 774.982 769.849 796.895 750.6 811.772C731.349 826.645 706.978 833.263 682.848 830.17C658.718 827.077 636.805 814.525 621.928 795.277L313.959 396.816C299.086 377.565 292.468 353.194 295.561 329.064C298.655 304.934 311.206 283.02 330.455 268.144Z" fill="url(#paint2_linear_6_200)"/>
<path d="M331.741 269.81C350.546 255.281 374.351 248.815 397.923 251.833C421.494 254.851 442.902 267.107 457.439 285.905L765.429 684.387C779.962 703.196 786.429 727.007 783.407 750.584C780.385 774.16 768.121 795.571 749.313 810.106C730.506 824.632 706.699 831.095 683.128 828.073C659.556 825.051 638.15 812.791 623.616 793.99L315.626 395.529C301.092 376.72 294.626 352.909 297.648 329.332C300.67 305.756 312.934 284.345 331.741 269.81Z" stroke="white" stroke-opacity="0.380392" style="stroke:white;stroke-opacity:0.380392;" stroke-width="0.316843" stroke-linecap="round"/>
<defs>
<linearGradient id="paint0_linear_6_200" x1="357.581" y1="279.091" x2="454.992" y2="727.84" gradientUnits="userSpaceOnUse">
<stop stop-color="white" style="stop-color:white;stop-opacity:1;"/>
<stop offset="1" stop-color="#9FD0FF" style="stop-color:#9FD0FF;stop-color:color(display-p3 0.6235 0.8157 1.0000);stop-opacity:1;"/>
</linearGradient>
<linearGradient id="paint1_linear_6_200" x1="666.563" y1="279.091" x2="763.974" y2="727.84" gradientUnits="userSpaceOnUse">
<stop stop-color="white" style="stop-color:white;stop-opacity:1;"/>
<stop offset="1" stop-color="#99CFFF" style="stop-color:#99CFFF;stop-color:color(display-p3 0.6000 0.8118 1.0000);stop-opacity:1;"/>
</linearGradient>
<linearGradient id="paint2_linear_6_200" x1="525.15" y1="302.97" x2="544.493" y2="772.263" gradientUnits="userSpaceOnUse">
<stop stop-color="white" style="stop-color:white;stop-opacity:1;"/>
<stop offset="0.48" stop-color="#E3F1FF" style="stop-color:#E3F1FF;stop-color:color(display-p3 0.8902 0.9451 1.0000);stop-opacity:1;"/>
<stop offset="1" stop-color="white" style="stop-color:white;stop-opacity:1;"/>
</linearGradient>
</defs>
</svg>
